<mxfile host="65bd71144e">
    <diagram id="SVtE_0mRjmbx8p5n_cGS" name="Page-1">
        <mxGraphModel dx="985" dy="435" grid="1" gridSize="10" guides="1" tooltips="1" connect="1" arrows="1" fold="1" page="1" pageScale="1" pageWidth="850" pageHeight="1100" math="0" shadow="0">
            <root>
                <mxCell id="0"/>
                <mxCell id="1" parent="0"/>
                <mxCell id="26" value="" style="edgeStyle=none;html=1;fontSize=15;" edge="1" parent="1" source="9" target="25">
                    <mxGeometry relative="1" as="geometry"/>
                </mxCell>
                <mxCell id="9" value="" style="shape=ext;double=1;rounded=0;whiteSpace=wrap;html=1;" vertex="1" parent="1">
                    <mxGeometry x="500" y="10" width="380" height="260" as="geometry"/>
                </mxCell>
                <mxCell id="24" value="pensar em um texto, com logo ou sla" style="text;html=1;align=center;verticalAlign=middle;resizable=0;points=[];autosize=1;strokeColor=none;fillColor=none;fontSize=15;" vertex="1" parent="1">
                    <mxGeometry x="555" y="45" width="270" height="30" as="geometry"/>
                </mxCell>
                <mxCell id="25" value="cada item da grid se tornara uma pagina com o jogo desenvolvido." style="shape=ext;double=1;rounded=0;whiteSpace=wrap;html=1;" vertex="1" parent="1">
                    <mxGeometry x="940" y="10" width="380" height="260" as="geometry"/>
                </mxCell>
                <mxCell id="27" value="" style="childLayout=tableLayout;recursiveResize=0;shadow=0;fillColor=none;fontSize=15;" vertex="1" parent="1">
                    <mxGeometry x="523" y="110" width="334" height="130" as="geometry"/>
                </mxCell>
                <mxCell id="28" value="" style="shape=tableRow;horizontal=0;startSize=0;swimlaneHead=0;swimlaneBody=0;top=0;left=0;bottom=0;right=0;dropTarget=0;collapsible=0;recursiveResize=0;expand=0;fontStyle=0;fillColor=none;strokeColor=inherit;fontSize=15;" vertex="1" parent="27">
                    <mxGeometry width="334" height="68" as="geometry"/>
                </mxCell>
                <mxCell id="46" style="connectable=0;recursiveResize=0;strokeColor=inherit;fillColor=none;align=center;whiteSpace=wrap;html=1;fontSize=15;" vertex="1" parent="28">
                    <mxGeometry width="67" height="68" as="geometry">
                        <mxRectangle width="67" height="68" as="alternateBounds"/>
                    </mxGeometry>
                </mxCell>
                <mxCell id="44" style="connectable=0;recursiveResize=0;strokeColor=inherit;fillColor=none;align=center;whiteSpace=wrap;html=1;fontSize=15;" vertex="1" parent="28">
                    <mxGeometry x="67" width="67" height="68" as="geometry">
                        <mxRectangle width="67" height="68" as="alternateBounds"/>
                    </mxGeometry>
                </mxCell>
                <mxCell id="29" value="Value 1" style="connectable=0;recursiveResize=0;strokeColor=inherit;fillColor=none;align=center;whiteSpace=wrap;html=1;fontSize=15;" vertex="1" parent="28">
                    <mxGeometry x="134" width="67" height="68" as="geometry">
                        <mxRectangle width="67" height="68" as="alternateBounds"/>
                    </mxGeometry>
                </mxCell>
                <mxCell id="30" value="Value 2" style="connectable=0;recursiveResize=0;strokeColor=inherit;fillColor=none;align=center;whiteSpace=wrap;html=1;fontSize=15;" vertex="1" parent="28">
                    <mxGeometry x="201" width="66" height="68" as="geometry">
                        <mxRectangle width="66" height="68" as="alternateBounds"/>
                    </mxGeometry>
                </mxCell>
                <mxCell id="31" value="Value 3" style="connectable=0;recursiveResize=0;strokeColor=inherit;fillColor=none;align=center;whiteSpace=wrap;html=1;fontSize=15;" vertex="1" parent="28">
                    <mxGeometry x="267" width="67" height="68" as="geometry">
                        <mxRectangle width="67" height="68" as="alternateBounds"/>
                    </mxGeometry>
                </mxCell>
                <mxCell id="32" style="shape=tableRow;horizontal=0;startSize=0;swimlaneHead=0;swimlaneBody=0;top=0;left=0;bottom=0;right=0;dropTarget=0;collapsible=0;recursiveResize=0;expand=0;fontStyle=0;fillColor=none;strokeColor=inherit;fontSize=15;" vertex="1" parent="27">
                    <mxGeometry y="68" width="334" height="62" as="geometry"/>
                </mxCell>
                <mxCell id="47" style="connectable=0;recursiveResize=0;strokeColor=inherit;fillColor=none;align=center;whiteSpace=wrap;html=1;fontSize=15;" vertex="1" parent="32">
                    <mxGeometry width="67" height="62" as="geometry">
                        <mxRectangle width="67" height="62" as="alternateBounds"/>
                    </mxGeometry>
                </mxCell>
                <mxCell id="45" style="connectable=0;recursiveResize=0;strokeColor=inherit;fillColor=none;align=center;whiteSpace=wrap;html=1;fontSize=15;" vertex="1" parent="32">
                    <mxGeometry x="67" width="67" height="62" as="geometry">
                        <mxRectangle width="67" height="62" as="alternateBounds"/>
                    </mxGeometry>
                </mxCell>
                <mxCell id="33" value="Value 4" style="connectable=0;recursiveResize=0;strokeColor=inherit;fillColor=none;align=center;whiteSpace=wrap;html=1;fontSize=15;" vertex="1" parent="32">
                    <mxGeometry x="134" width="67" height="62" as="geometry">
                        <mxRectangle width="67" height="62" as="alternateBounds"/>
                    </mxGeometry>
                </mxCell>
                <mxCell id="34" value="Value 5" style="connectable=0;recursiveResize=0;strokeColor=inherit;fillColor=none;align=center;whiteSpace=wrap;html=1;fontSize=15;" vertex="1" parent="32">
                    <mxGeometry x="201" width="66" height="62" as="geometry">
                        <mxRectangle width="66" height="62" as="alternateBounds"/>
                    </mxGeometry>
                </mxCell>
                <mxCell id="35" value="Value 6" style="connectable=0;recursiveResize=0;strokeColor=inherit;fillColor=none;align=center;whiteSpace=wrap;html=1;fontSize=15;" vertex="1" parent="32">
                    <mxGeometry x="267" width="67" height="62" as="geometry">
                        <mxRectangle width="67" height="62" as="alternateBounds"/>
                    </mxGeometry>
                </mxCell>
            </root>
        </mxGraphModel>
    </diagram>
</mxfile>